# xmcd
# Copyright (c) 1998 CDDB Inc.
#
# Track frame offsets:
#	150
#	19935
#	39364
#	57055
#	77177
#	92141
#	109845
#	125472
#	143349
#	166568
#	182070
#	200325
#	213684
#	229473
#	244940
#
# Disc length: 3512 seconds
#
# Revision: 1
# Processed by: cddbd v1.5.2PL0 Copyright (c) Steve Scherf et al.
# Submitted via: AudioCatalyst 2.10full
#
DISCID=c80db60f
DTITLE=Rascal Flatts - Changed Deluxe
DYEAR=1900
DGENRE=
TTITLE0=Changed
TTITLE1=Banjo
TTITLE2=Hot In Here
TTITLE3=Come Wake Me Up
TTITLE4=She's Leaving
TTITLE5=Let It Hurt
TTITLE6=Lovin Me
TTITLE7=Hurry Baby
TTITLE8=Sunrise
TTITLE9=Great Big Love
TTITLE10=A Little Home
TTITLE11=Friday
TTITLE12=Fall Here
TTITLE13=Right One Time
TTITLE14=Next To You Next To Me
EXTD=
EXTT0=
EXTT1=
EXTT2=
EXTT3=
EXTT4=
EXTT5=
EXTT6=
EXTT7=
EXTT8=
EXTT9=
EXTT10=
EXTT11=
EXTT12=
EXTT13=
EXTT14=
PLAYORDER=
